<svg width="196" height="286" viewBox="0 0 196 286" fill="none" xmlns="http://www.w3.org/2000/svg">
<g opacity="0.597247">
<path opacity="0.597247" fill-rule="evenodd" clip-rule="evenodd" d="M126.857 182.633C-27.0335 232.128 65.9981 -37.186 143.112 43.7812C181.729 84.3258 239.834 -11.9754 272.741 33.3256C305.649 78.6265 262.065 99.1204 242.922 151.791C219.014 217.569 166.623 169.843 126.857 182.633Z" stroke="#7B4AF4" stroke-width="0.17967"/>
<path opacity="0.597247" fill-rule="evenodd" clip-rule="evenodd" d="M127.545 185.485C-20.8302 227.434 61.9742 -30.6431 141.687 41.8934C181.35 77.9855 244.706 -8.21358 274.071 37.4257C303.452 83.0315 263.551 106.261 242.298 154.516C216.003 214.863 166.834 174.377 127.545 185.485Z" stroke="#7945F3" stroke-width="0.17967"/>
<path opacity="0.597247" fill-rule="evenodd" clip-rule="evenodd" d="M128.234 188.34C-14.4439 222.906 57.8081 -24.1509 140.262 40.0082C180.901 71.6312 249.578 -4.44896 275.401 41.5288C301.255 87.4392 264.854 113.307 241.673 157.243C212.762 212.039 167.1 178.923 128.234 188.34Z" stroke="#7741F2" stroke-width="0.17967"/>
<path opacity="0.597247" fill-rule="evenodd" clip-rule="evenodd" d="M128.922 191.194C-7.87298 218.578 53.4775 -17.681 138.836 38.1231C180.371 65.278 254.448 -0.684044 276.73 45.6317C299.059 91.8467 266.266 120.383 241.049 159.97C209.657 209.252 167.425 183.487 128.922 191.194Z" stroke="#753CF1" stroke-width="0.17967"/>
<path opacity="0.597247" fill-rule="evenodd" clip-rule="evenodd" d="M129.611 194.05C-1.11793 214.49 48.9704 -11.1903 137.411 36.2392C179.755 58.9477 259.321 3.0816 278.06 49.7355C296.862 96.2554 267.697 127.447 240.425 162.699C206.576 206.453 167.81 188.078 129.611 194.05Z" stroke="#7238F0" stroke-width="0.17967"/>
<path opacity="0.597247" fill-rule="evenodd" clip-rule="evenodd" d="M130.299 196.905C5.81003 210.678 44.2854 -4.6287 135.985 34.354C179.051 52.662 264.192 6.8462 279.389 53.8387C294.665 100.663 269.151 134.504 239.8 165.426C203.525 203.644 168.251 192.706 130.299 196.905Z" stroke="#7033EF" stroke-width="0.17967"/>
<path opacity="0.597247" fill-rule="evenodd" clip-rule="evenodd" d="M130.988 199.759C12.8962 207.179 39.4445 2.05723 134.559 32.4686C178.272 46.4451 269.063 10.6104 280.718 57.9408C292.468 105.07 270.634 141.561 239.176 168.153C200.509 200.837 168.748 197.387 130.988 199.759Z" stroke="#6E2EEE" stroke-width="0.17967"/>
<path opacity="0.597247" fill-rule="evenodd" clip-rule="evenodd" d="M131.677 202.614C20.1142 204.026 34.4867 8.9162 133.134 30.5831C177.439 40.3138 273.935 14.3746 282.049 62.0434C290.272 109.477 272.149 148.629 238.552 170.879C197.534 198.045 169.294 202.137 131.677 202.614Z" stroke="#6C2AED" stroke-width="0.17967"/>
<path opacity="0.597247" fill-rule="evenodd" clip-rule="evenodd" d="M132.366 205.47C27.4262 201.248 29.4627 15.9833 131.708 28.6997C176.576 34.2794 278.807 18.1408 283.378 66.148C288.076 113.886 273.69 155.722 237.928 173.608C194.59 195.284 169.876 206.979 132.366 205.47Z" stroke="#6A25EC" stroke-width="0.17967"/>
<path opacity="0.597247" fill-rule="evenodd" clip-rule="evenodd" d="M133.054 208.325C34.7879 198.856 24.4315 23.2673 130.283 26.815C175.71 28.3375 283.678 21.906 284.708 70.2515C285.88 118.295 275.248 162.846 237.304 176.336C191.667 192.561 170.48 211.932 133.054 208.325Z" stroke="#6820EB" stroke-width="0.17967"/>
<path opacity="0.597247" fill-rule="evenodd" clip-rule="evenodd" d="M133.743 211.179C42.1408 196.854 19.4475 30.7579 128.857 24.9286C174.864 22.4772 288.549 25.6694 286.037 74.3532C283.683 122.701 276.811 170.005 236.68 179.062C188.749 189.879 171.081 217.018 133.743 211.179Z" stroke="#661CEA" stroke-width="0.17967"/>
<path opacity="0.597247" fill-rule="evenodd" clip-rule="evenodd" d="M134.432 214.032C49.4218 195.23 14.5561 38.4305 127.433 23.042C174.06 16.6855 293.422 29.4329 287.368 78.4547C281.487 127.107 278.367 177.198 236.057 181.788C185.823 187.237 171.653 222.264 134.432 214.032Z" stroke="#6417E9" stroke-width="0.17967"/>
<path opacity="0.597247" fill-rule="evenodd" clip-rule="evenodd" d="M135.12 216.887C56.5536 193.954 9.78374 46.2484 126.006 21.1569C173.305 10.9456 298.292 33.1974 288.696 82.5574C279.289 131.515 279.905 184.42 235.432 184.515C182.875 184.628 172.153 227.697 135.12 216.887Z" stroke="#6213E8" stroke-width="0.17967"/>
<path opacity="0.597247" fill-rule="evenodd" clip-rule="evenodd" d="M135.81 219.741C63.4616 192.973 5.14701 54.1694 124.583 19.2717C172.611 5.23813 303.166 36.9617 290.028 86.66C277.095 135.922 281.424 191.659 234.809 187.242C179.904 182.039 172.54 233.331 135.81 219.741Z" stroke="#5F0EE7" stroke-width="0.17967"/>
<path opacity="0.597247" fill-rule="evenodd" clip-rule="evenodd" d="M136.498 222.598C70.0592 192.215 0.641993 62.1579 123.156 17.3888C171.969 -0.448782 308.037 40.7286 291.357 90.7654C274.898 140.332 282.918 198.911 234.185 189.971C176.903 179.464 172.756 239.18 136.498 222.598Z" stroke="#5D09E6" stroke-width="0.17967"/>
<path opacity="0.597247" fill-rule="evenodd" clip-rule="evenodd" d="M137.188 225.454C76.276 191.58 -3.7363 70.1769 121.732 15.5039C171.382 -6.13134 312.91 44.4939 292.688 94.8686C272.702 144.74 284.394 206.165 233.562 192.699C173.88 176.89 172.748 245.228 137.188 225.454Z" stroke="#5B05E5" stroke-width="0.17967"/>
<path opacity="0.597247" fill-rule="evenodd" clip-rule="evenodd" d="M137.876 228.308C82.0453 190.958 -8.00512 78.202 120.305 13.6185C170.84 -11.8177 317.78 48.258 294.017 98.971C270.505 149.147 285.851 213.416 232.937 195.426C170.834 174.313 172.465 251.447 137.876 228.308Z" stroke="#5900E4" stroke-width="0.17967"/>
</g>
<g opacity="0.499273">
<path opacity="0.499273" fill-rule="evenodd" clip-rule="evenodd" d="M165.347 15.3247C247.816 -152.341 351.382 147.008 242.272 143.549C187.634 141.817 206.236 269.314 152.786 258.947C99.3361 248.581 118.542 195.74 98.9912 136.413C74.5754 62.3236 144.037 58.6509 165.347 15.3247Z" stroke="#1CA4E9" stroke-width="0.143127"/>
<path opacity="0.499273" fill-rule="evenodd" clip-rule="evenodd" d="M163.008 13.5301C246.348 -143.586 350.254 138.276 244.538 143.933C192.016 146.744 200.209 270.211 149.171 256.648C98.1418 243.125 112.861 191.055 97.7071 133.643C78.5428 62.0789 141.007 55.0067 163.008 13.5301Z" stroke="#1CA4E9" stroke-width="0.143127"/>
<path opacity="0.499273" fill-rule="evenodd" clip-rule="evenodd" d="M160.667 11.738C244.667 -134.813 349.311 129.455 246.804 144.32C196.479 151.618 194.181 271.111 145.554 254.351C96.9468 237.673 107.385 186.333 96.4219 130.875C82.7651 61.7858 137.937 51.3939 160.667 11.738Z" stroke="#1CA4E9" stroke-width="0.143127"/>
<path opacity="0.499273" fill-rule="evenodd" clip-rule="evenodd" d="M158.326 9.94347C242.746 -126.045 348.536 120.485 249.07 144.705C201.013 156.406 188.154 272.009 141.938 252.053C95.7518 232.218 101.802 181.652 95.1373 128.105C86.8531 61.5442 134.822 47.8063 158.326 9.94347Z" stroke="#1CA4E9" stroke-width="0.143127"/>
<path opacity="0.499273" fill-rule="evenodd" clip-rule="evenodd" d="M155.986 8.14965C240.558 -117.3 347.883 111.32 251.336 145.09C205.598 161.088 182.127 272.907 138.323 249.754C94.5576 226.764 96.211 176.988 93.8533 125.336C90.9314 61.3241 131.654 44.243 155.986 8.14965Z" stroke="#1CA4E9" stroke-width="0.143127"/>
<path opacity="0.499273" fill-rule="evenodd" clip-rule="evenodd" d="M153.646 6.35708C238.076 -108.605 347.287 101.926 253.602 145.476C210.201 165.651 176.1 273.807 134.706 247.457C93.3628 221.312 90.6063 172.343 92.5686 122.567C94.9908 61.1259 128.425 40.6982 153.646 6.35708Z" stroke="#1CA4E9" stroke-width="0.143127"/>
<path opacity="0.499273" fill-rule="evenodd" clip-rule="evenodd" d="M151.305 4.56216C235.275 -99.9955 346.674 92.2895 255.867 145.861C214.791 170.093 170.071 274.704 131.09 245.158C92.1672 215.857 84.9809 167.71 91.2829 119.797C99.0243 60.9422 125.126 37.1594 151.305 4.56216Z" stroke="#1CA4E9" stroke-width="0.143127"/>
<path opacity="0.499273" fill-rule="evenodd" clip-rule="evenodd" d="M148.964 2.76838C232.139 -91.5093 345.971 82.4284 258.133 146.246C219.339 174.431 164.044 275.602 127.474 242.86C90.9725 210.402 79.3316 163.086 89.9986 117.028C103.027 60.7706 121.749 33.6167 148.964 2.76838Z" stroke="#1CA4E9" stroke-width="0.143127"/>
<path opacity="0.499273" fill-rule="evenodd" clip-rule="evenodd" d="M146.623 0.972701C228.658 -83.1923 345.121 72.3791 260.398 146.629C223.821 178.685 158.016 276.499 123.857 240.56C89.7773 204.946 73.6527 158.463 88.7136 114.256C106.994 60.5989 118.283 30.0488 146.623 0.972701Z" stroke="#1CA4E9" stroke-width="0.143127"/>
<path opacity="0.499273" fill-rule="evenodd" clip-rule="evenodd" d="M144.283 -0.819412C224.835 -75.0893 344.087 62.1976 262.664 147.016C228.228 182.889 151.989 277.399 120.241 238.263C88.5828 199.494 67.9445 153.835 87.4289 111.488C110.925 60.4217 114.721 26.437 144.283 -0.819412Z" stroke="#1CA4E9" stroke-width="0.143127"/>
<path opacity="0.499273" fill-rule="evenodd" clip-rule="evenodd" d="M141.941 -2.61291C220.689 -67.2581 342.857 51.9323 264.929 147.402C232.556 187.062 145.96 278.298 116.624 235.965C87.3871 194.04 62.2091 149.19 86.143 108.719C114.824 60.2231 111.055 22.7424 141.941 -2.61291Z" stroke="#1CA4E9" stroke-width="0.143127"/>
<path opacity="0.499273" fill-rule="evenodd" clip-rule="evenodd" d="M139.603 -4.40631C216.262 -59.7502 341.441 41.6345 267.197 147.787C236.812 191.23 139.935 279.196 113.01 233.667C86.1938 188.586 56.4559 144.521 84.8602 105.95C118.701 59.9971 107.284 18.9257 139.603 -4.40631Z" stroke="#1CA4E9" stroke-width="0.143127"/>
<path opacity="0.499273" fill-rule="evenodd" clip-rule="evenodd" d="M137.262 -6.20241C211.618 -52.6196 339.855 31.3394 269.462 148.17C241.003 195.405 133.907 280.092 109.394 231.367C84.9986 183.13 50.6884 139.823 83.5752 103.179C122.562 59.7364 103.408 14.9311 137.262 -6.20241Z" stroke="#1CA4E9" stroke-width="0.143127"/>
<path opacity="0.499273" fill-rule="evenodd" clip-rule="evenodd" d="M134.922 -7.99448C206.853 -45.9042 338.126 21.0813 271.728 148.557C245.14 199.604 127.88 280.992 105.778 229.07C83.8043 177.678 44.9184 135.101 82.2907 100.411C126.422 59.4473 99.4412 10.7046 134.922 -7.99448Z" stroke="#1CA4E9" stroke-width="0.143127"/>
<path opacity="0.499273" fill-rule="evenodd" clip-rule="evenodd" d="M132.58 -9.78829C202.094 -39.6398 336.28 10.8721 273.993 148.942C249.233 203.829 121.851 281.89 102.161 226.772C82.6081 172.224 39.1496 130.353 81.0046 97.6413C130.284 59.1277 95.412 6.17288 132.58 -9.78829Z" stroke="#1CA4E9" stroke-width="0.143127"/>
<path opacity="0.499273" fill-rule="evenodd" clip-rule="evenodd" d="M130.241 -11.5815C197.505 -33.8338 334.347 0.722343 276.26 149.328C253.295 208.083 115.825 282.789 98.5462 224.474C81.415 166.77 33.3923 125.585 79.722 94.8724C134.16 58.7848 91.3765 1.27538 130.241 -11.5815Z" stroke="#1CA4E9" stroke-width="0.143127"/>
<path opacity="0.499273" fill-rule="evenodd" clip-rule="evenodd" d="M127.9 -13.376C193.263 -28.4632 332.344 -9.36661 278.526 149.713C257.33 212.365 109.797 283.687 94.9294 222.175C80.2194 161.316 27.6438 120.8 78.4365 92.1022C138.048 58.4222 87.4045 -4.02908 127.9 -13.376Z" stroke="#1CA4E9" stroke-width="0.143127"/>
</g>
<g opacity="0.294967">
<path opacity="0.294967" fill-rule="evenodd" clip-rule="evenodd" d="M257.07 48.7623C448.239 64.8732 215.828 304.639 171.657 186.328C149.538 127.084 39.4747 201.892 25.8723 140.202C12.27 78.5106 69.5723 76.3239 116.056 29.8493C174.106 -28.1904 207.67 44.5989 257.07 48.7623Z" stroke="#2AEFFF" stroke-width="0.143127"/>
<path opacity="0.294967" fill-rule="evenodd" clip-rule="evenodd" d="M257.715 45.4829C439.305 67.0448 223.399 299.608 172.283 188.919C146.86 133.866 36.0249 195.825 26.4316 135.339C16.8044 74.8825 71.4449 68.2238 118.064 27.2806C176.054 -24.049 209.68 39.7793 257.715 45.4829Z" stroke="#2AEFFF" stroke-width="0.143127"/>
<path opacity="0.294967" fill-rule="evenodd" clip-rule="evenodd" d="M258.362 42.2042C430.259 68.9763 231.111 294.708 172.911 191.511C144.256 140.7 32.5767 189.757 26.9924 130.478C21.3412 71.2543 73.463 60.3127 120.073 24.7122C178.184 -19.6726 211.639 34.9274 258.362 42.2042Z" stroke="#2AEFFF" stroke-width="0.143127"/>
<path opacity="0.294967" fill-rule="evenodd" clip-rule="evenodd" d="M259.008 38.9279C421.108 70.6297 239.001 289.912 173.539 194.104C141.747 147.574 29.1273 183.693 27.5519 125.619C25.8762 67.6289 75.3816 52.3206 122.082 22.1463C180.19 -15.3986 213.545 30.0365 259.008 38.9279Z" stroke="#2AEFFF" stroke-width="0.143127"/>
<path opacity="0.294967" fill-rule="evenodd" clip-rule="evenodd" d="M259.654 35.6495C411.867 71.9621 247.102 285.171 174.165 196.696C139.346 154.46 25.6772 177.626 28.1108 120.757C30.4105 64.0013 77.2753 44.3281 124.089 19.5782C182.165 -11.1256 215.401 25.0924 259.654 35.6495Z" stroke="#2AEFFF" stroke-width="0.143127"/>
<path opacity="0.294967" fill-rule="evenodd" clip-rule="evenodd" d="M260.299 32.3709C402.561 72.9377 255.435 280.422 174.791 199.287C137.064 161.331 22.2272 171.559 28.6698 115.896C34.9452 60.3737 79.1422 36.331 126.098 17.0099C184.107 -6.85966 217.212 20.0846 260.299 32.3709Z" stroke="#2AEFFF" stroke-width="0.143127"/>
<path opacity="0.294967" fill-rule="evenodd" clip-rule="evenodd" d="M260.944 29.0941C393.223 73.5236 263.998 275.598 175.418 201.881C134.895 168.157 18.7773 165.493 29.2286 111.036C39.4794 56.7472 80.9811 28.3215 128.105 14.4435C186.015 -2.61071 218.988 15.002 260.944 29.0941Z" stroke="#2AEFFF" stroke-width="0.143127"/>
<path opacity="0.294967" fill-rule="evenodd" clip-rule="evenodd" d="M261.591 25.8155C383.892 73.6896 272.763 270.625 176.045 204.472C132.823 174.909 15.3279 159.426 29.7886 106.175C44.0151 53.1194 82.7966 20.2858 130.114 11.8752C187.893 1.60553 220.742 9.82557 261.591 25.8155Z" stroke="#2AEFFF" stroke-width="0.143127"/>
<path opacity="0.294967" fill-rule="evenodd" clip-rule="evenodd" d="M262.236 22.5364C374.615 73.4195 281.681 265.45 176.672 207.063C130.82 181.569 11.8781 153.359 30.3478 101.312C48.5497 49.4912 84.5947 12.2159 132.122 9.30677C189.75 5.77897 222.492 4.54071 262.236 22.5364Z" stroke="#2AEFFF" stroke-width="0.143127"/>
<path opacity="0.294967" fill-rule="evenodd" clip-rule="evenodd" d="M262.883 19.2569C365.448 72.7112 290.695 260.039 177.299 209.653C128.857 188.129 8.42936 147.291 30.9083 96.4501C53.0857 45.8623 86.3896 4.10619 134.132 6.73729C191.604 9.90478 224.264 -0.870428 262.883 19.2569Z" stroke="#2AEFFF" stroke-width="0.143127"/>
<path opacity="0.294967" fill-rule="evenodd" clip-rule="evenodd" d="M263.528 15.9785C356.452 71.581 299.737 254.387 177.925 212.245C126.901 194.592 4.97956 141.224 31.4669 91.5888C57.62 42.2347 88.1923 -4.04084 136.139 4.16921C193.467 13.9854 226.09 -6.42357 263.528 15.9785Z" stroke="#2AEFFF" stroke-width="0.143127"/>
<path opacity="0.294967" fill-rule="evenodd" clip-rule="evenodd" d="M264.174 12.701C347.696 70.0658 308.753 248.51 178.552 214.838C124.93 200.97 1.52892 135.158 32.0259 86.7286C62.1544 38.6085 90.0159 -12.2186 138.147 1.60243C195.355 18.0301 228.015 -12.1336 264.174 12.701Z" stroke="#2AEFFF" stroke-width="0.143127"/>
<path opacity="0.294967" fill-rule="evenodd" clip-rule="evenodd" d="M264.82 9.42212C339.248 68.2236 317.702 242.435 179.179 217.429C122.926 207.275 -1.91994 129.091 32.5857 81.8668C66.6899 34.9801 91.8681 -20.4209 140.156 -0.966155C197.277 22.0476 230.091 -18.0146 264.82 9.42212Z" stroke="#2AEFFF" stroke-width="0.143127"/>
<path opacity="0.294967" fill-rule="evenodd" clip-rule="evenodd" d="M265.467 6.14766C331.179 66.1502 326.557 236.205 179.807 220.024C120.877 213.527 -5.36859 123.028 33.1464 77.0095C71.226 31.3566 93.7509 -28.6303 142.165 -3.53027C199.234 26.0572 232.382 -24.0627 265.467 6.14766Z" stroke="#2AEFFF" stroke-width="0.143127"/>
<path opacity="0.294967" fill-rule="evenodd" clip-rule="evenodd" d="M266.112 2.86643C323.546 63.9514 335.302 229.851 180.433 222.613C118.776 219.732 -8.81854 116.958 33.7054 72.1455C75.7605 27.7259 95.6596 -36.8488 144.173 -6.10116C201.224 30.0581 234.949 -30.2775 266.112 2.86643Z" stroke="#2AEFFF" stroke-width="0.143127"/>
<path opacity="0.294967" fill-rule="evenodd" clip-rule="evenodd" d="M266.758 -0.413338C316.401 61.7792 343.934 223.415 181.06 225.204C116.627 225.911 -12.2683 110.89 34.2647 67.2829C80.2955 24.097 97.5925 -45.0619 146.181 -8.67059C203.242 34.066 237.86 -36.6171 266.758 -0.413338Z" stroke="#2AEFFF" stroke-width="0.143127"/>
<path opacity="0.294967" fill-rule="evenodd" clip-rule="evenodd" d="M267.405 -3.68978C309.766 59.7973 352.46 216.929 181.688 227.797C114.43 232.077 -15.7167 104.825 34.8252 62.4233C84.8314 20.4712 99.545 -53.2635 148.191 -11.2367C205.283 38.0878 241.161 -43.0226 267.405 -3.68978Z" stroke="#2AEFFF" stroke-width="0.143127"/>
</g>
</svg>
