<svg width="224" height="276" viewBox="0 0 224 276" fill="none" xmlns="http://www.w3.org/2000/svg">
<g opacity="0.597247">
<path opacity="0.597247" fill-rule="evenodd" clip-rule="evenodd" d="M96.902 38.7647C250.792 -10.7305 157.761 258.584 80.6464 177.616C42.0302 137.072 -16.0755 233.373 -48.9827 188.072C-81.8898 142.771 -38.3065 122.277 -19.1629 69.6065C4.74462 3.82815 57.1354 51.5545 96.902 38.7647Z" stroke="#7B4AF4" stroke-width="0.17967"/>
<path opacity="0.597247" fill-rule="evenodd" clip-rule="evenodd" d="M96.2145 35.9095C244.59 -6.03909 161.786 252.038 82.0725 179.501C42.4098 143.409 -20.9458 229.608 -50.3111 183.969C-79.692 138.363 -39.7917 115.133 -18.5377 66.8787C7.75681 6.53142 56.9259 47.0172 96.2145 35.9095Z" stroke="#7945F3" stroke-width="0.17967"/>
<path opacity="0.597247" fill-rule="evenodd" clip-rule="evenodd" d="M95.5248 33.0549C238.203 -1.51106 165.951 245.545 83.4969 181.386C42.8573 149.763 -25.8188 225.843 -51.6419 179.866C-77.4965 133.955 -41.0957 108.087 -17.9147 64.1517C10.9968 9.35532 56.6585 42.471 95.5248 33.0549Z" stroke="#7741F2" stroke-width="0.17967"/>
<path opacity="0.597247" fill-rule="evenodd" clip-rule="evenodd" d="M94.8366 30.1992C231.632 2.81508 170.281 239.075 84.9232 183.27C43.3873 156.116 -30.6896 222.078 -52.9712 175.762C-75.2998 129.547 -42.5073 101.011 -17.2902 61.4235C14.1021 12.1414 56.3335 37.9065 94.8366 30.1992Z" stroke="#753CF1" stroke-width="0.17967"/>
<path opacity="0.597247" fill-rule="evenodd" clip-rule="evenodd" d="M94.1474 27.3462C224.877 6.90611 174.788 232.587 86.3481 185.157C44.0039 162.449 -35.5618 218.315 -54.3011 171.661C-73.1036 125.141 -43.938 93.9491 -16.6666 58.698C17.1832 14.9439 55.9493 33.3186 94.1474 27.3462Z" stroke="#7238F0" stroke-width="0.17967"/>
<path opacity="0.597247" fill-rule="evenodd" clip-rule="evenodd" d="M93.4605 24.4925C217.95 10.7196 179.474 226.026 87.7751 187.043C44.7089 168.735 -40.4318 214.551 -55.6295 167.559C-70.9056 120.734 -45.3911 86.8936 -16.0407 55.9715C20.2352 17.7532 55.5083 28.6916 93.4605 24.4925Z" stroke="#7033EF" stroke-width="0.17967"/>
<path opacity="0.597247" fill-rule="evenodd" clip-rule="evenodd" d="M92.7703 21.6374C210.862 14.2178 184.313 219.339 89.1992 188.928C45.4854 174.951 -45.3047 210.786 -56.9604 163.456C-68.7105 116.327 -46.8765 79.8358 -15.4181 53.2439C23.2484 20.5591 55.0102 24.0096 92.7703 21.6374Z" stroke="#6E2EEE" stroke-width="0.17967"/>
<path opacity="0.597247" fill-rule="evenodd" clip-rule="evenodd" d="M92.0818 18.7829C203.645 17.3705 189.272 212.48 90.6248 190.813C46.3194 181.083 -50.176 207.022 -58.2898 159.353C-66.5136 111.919 -48.3905 72.7675 -14.7936 50.5172C26.225 23.3512 54.465 19.2592 92.0818 18.7829Z" stroke="#6C2AED" stroke-width="0.17967"/>
<path opacity="0.597247" fill-rule="evenodd" clip-rule="evenodd" d="M91.3932 15.9265C196.333 20.1489 194.296 205.413 92.0503 192.697C47.1829 187.117 -55.0478 203.256 -59.6195 155.248C-64.3174 107.51 -49.9312 65.6747 -14.1695 47.7883C29.1692 26.1123 53.8829 14.4173 91.3932 15.9265Z" stroke="#6A25EC" stroke-width="0.17967"/>
<path opacity="0.597247" fill-rule="evenodd" clip-rule="evenodd" d="M90.7045 13.0711C188.971 22.5402 199.327 198.129 93.4757 194.582C48.0491 193.059 -59.9196 199.49 -60.9495 151.145C-62.1211 103.102 -51.4896 58.5501 -13.5457 45.0604C32.0921 28.8352 53.2791 9.46485 90.7045 13.0711Z" stroke="#6820EB" stroke-width="0.17967"/>
<path opacity="0.597247" fill-rule="evenodd" clip-rule="evenodd" d="M90.0152 10.2177C181.617 24.5424 204.31 190.639 94.9005 196.468C48.8937 198.919 -64.7917 195.727 -62.2797 147.043C-59.9249 98.6956 -53.0533 51.3913 -12.9222 42.3345C35.0085 31.5173 52.6763 4.37871 90.0152 10.2177Z" stroke="#661CEA" stroke-width="0.17967"/>
<path opacity="0.597247" fill-rule="evenodd" clip-rule="evenodd" d="M89.3268 7.36336C174.337 26.1653 209.203 182.965 96.3261 198.354C49.699 204.71 -69.6632 191.963 -63.6092 142.941C-57.728 94.2886 -54.6085 44.1973 -12.2979 39.6077C37.9353 34.1582 52.1059 -0.868566 89.3268 7.36336Z" stroke="#6417E9" stroke-width="0.17967"/>
<path opacity="0.597247" fill-rule="evenodd" clip-rule="evenodd" d="M88.6383 4.50754C167.204 27.4404 213.974 175.146 97.7521 200.238C50.4526 210.449 -74.5344 188.197 -64.9385 138.837C-55.5317 89.8799 -56.1469 36.975 -11.6737 36.8794C40.8827 36.7666 51.6049 -6.30205 88.6383 4.50754Z" stroke="#6213E8" stroke-width="0.17967"/>
<path opacity="0.597247" fill-rule="evenodd" clip-rule="evenodd" d="M87.9495 1.65317C160.298 28.4217 218.613 167.225 99.1772 202.123C51.1492 216.156 -79.4061 184.433 -66.2683 134.735C-53.335 85.4728 -57.6642 29.7353 -11.0495 34.1523C43.8558 39.3552 51.2193 -11.9367 87.9495 1.65317Z" stroke="#5F0EE7" stroke-width="0.17967"/>
<path opacity="0.597247" fill-rule="evenodd" clip-rule="evenodd" d="M87.2616 -1.20179C153.701 29.1817 223.118 159.239 100.603 204.008C51.7909 221.845 -84.2774 180.668 -67.5975 130.631C-51.1378 81.0648 -59.1586 22.4852 -10.4251 31.425C46.8567 41.9326 51.0042 -17.7831 87.2616 -1.20179Z" stroke="#5D09E6" stroke-width="0.17967"/>
<path opacity="0.597247" fill-rule="evenodd" clip-rule="evenodd" d="M86.5708 -4.05613C147.483 29.817 227.495 151.221 102.027 205.894C52.3766 227.529 -89.151 176.904 -68.929 126.529C-48.9435 76.6579 -60.6355 15.2326 -9.80309 28.6982C49.8786 44.5078 51.0109 -23.8309 86.5708 -4.05613Z" stroke="#5B05E5" stroke-width="0.17967"/>
<path opacity="0.597247" fill-rule="evenodd" clip-rule="evenodd" d="M85.8841 -6.91231C141.714 30.4374 231.765 143.194 103.454 207.777C52.92 233.213 -94.0206 173.138 -70.2568 122.425C-46.745 72.2487 -62.0915 7.97951 -9.17709 25.9695C52.9255 47.0829 51.2948 -30.0518 85.8841 -6.91231Z" stroke="#5900E4" stroke-width="0.17967"/>
</g>
<g opacity="0.499273">
<path opacity="0.499273" fill-rule="evenodd" clip-rule="evenodd" d="M58.4104 206.072C-24.0587 373.738 -127.624 74.389 -18.5139 77.8475C36.1236 79.5795 17.522 -47.9175 70.972 -37.5507C124.422 -27.1842 105.216 25.6569 124.767 84.9833C149.182 159.073 79.7209 162.746 58.4104 206.072Z" stroke="#1CA4E9" stroke-width="0.143127"/>
<path opacity="0.499273" fill-rule="evenodd" clip-rule="evenodd" d="M60.7501 207.866C-22.5903 364.983 -126.496 83.1203 -20.7805 77.4633C31.742 74.6528 23.5488 -48.8148 74.5872 -35.2515C125.616 -21.729 110.897 30.3415 126.051 87.7535C145.215 159.318 82.7511 166.39 60.7501 207.866Z" stroke="#1CA4E9" stroke-width="0.143127"/>
<path opacity="0.499273" fill-rule="evenodd" clip-rule="evenodd" d="M63.0908 209.659C-20.9091 356.21 -125.554 91.9411 -23.0463 77.0763C27.2788 69.7787 29.5766 -49.7149 78.2035 -32.955C126.811 -16.2768 116.373 35.0637 127.336 90.5213C140.993 159.611 85.8209 170.003 63.0908 209.659Z" stroke="#1CA4E9" stroke-width="0.143127"/>
<path opacity="0.499273" fill-rule="evenodd" clip-rule="evenodd" d="M65.4316 211.453C-18.9879 347.441 -124.778 100.911 -25.3117 76.6917C22.7446 64.9905 35.6042 -50.6125 81.8198 -30.6562C128.006 -10.822 121.956 39.7446 128.621 93.2912C136.905 159.852 88.9362 173.59 65.4316 211.453Z" stroke="#1CA4E9" stroke-width="0.143127"/>
<path opacity="0.499273" fill-rule="evenodd" clip-rule="evenodd" d="M67.7715 213.247C-16.8005 338.697 -124.125 110.076 -27.5783 76.3067C18.1598 60.3086 41.6308 -51.5107 85.4352 -28.3578C129.2 -5.36793 127.547 44.4082 129.904 96.061C132.826 160.072 92.1038 177.154 67.7715 213.247Z" stroke="#1CA4E9" stroke-width="0.143127"/>
<path opacity="0.499273" fill-rule="evenodd" clip-rule="evenodd" d="M70.1121 215.042C-14.3181 330.004 -123.53 119.473 -29.844 75.923C13.5565 55.7482 47.6582 -52.4074 89.0516 -26.058C130.395 0.0878674 133.152 49.0563 131.189 98.8321C128.767 160.274 95.3327 180.701 70.1121 215.042Z" stroke="#1CA4E9" stroke-width="0.143127"/>
<path opacity="0.499273" fill-rule="evenodd" clip-rule="evenodd" d="M72.4531 216.834C-11.5169 321.392 -122.916 129.107 -32.1092 75.536C8.9668 51.3033 53.6866 -53.3076 92.6681 -23.7616C131.591 5.53993 138.777 53.6869 132.475 101.599C124.733 160.454 98.6319 184.237 72.4531 216.834Z" stroke="#1CA4E9" stroke-width="0.143127"/>
<path opacity="0.499273" fill-rule="evenodd" clip-rule="evenodd" d="M74.7935 218.628C-8.38143 312.906 -122.214 138.968 -34.375 75.1509C4.41917 46.9657 59.7138 -54.2057 96.284 -21.4632C132.785 10.9943 144.426 58.3103 133.759 104.369C120.73 160.626 102.009 187.78 74.7935 218.628Z" stroke="#1CA4E9" stroke-width="0.143127"/>
<path opacity="0.499273" fill-rule="evenodd" clip-rule="evenodd" d="M77.1335 220.424C-4.90083 304.589 -121.364 149.017 -36.6415 74.7675C-0.0643696 42.7114 65.7409 -55.1022 99.8995 -19.1632C133.98 16.45 150.104 62.9337 135.043 107.14C116.763 160.798 105.474 191.348 77.1335 220.424Z" stroke="#1CA4E9" stroke-width="0.143127"/>
<path opacity="0.499273" fill-rule="evenodd" clip-rule="evenodd" d="M79.475 222.216C-1.07712 296.486 -120.329 159.199 -38.9065 74.3801C-4.46985 38.5077 71.7689 -56.0024 103.517 -16.8665C135.175 21.9024 155.813 67.5611 136.329 109.908C112.833 160.975 109.037 194.959 79.475 222.216Z" stroke="#1CA4E9" stroke-width="0.143127"/>
<path opacity="0.499273" fill-rule="evenodd" clip-rule="evenodd" d="M81.8154 224.009C3.06827 288.655 -119.101 169.464 -41.1723 73.9948C-8.7987 34.3344 77.7964 -56.901 107.133 -14.5683C136.37 27.3562 161.548 72.2066 137.614 112.677C108.933 161.173 112.702 198.654 81.8154 224.009Z" stroke="#1CA4E9" stroke-width="0.143127"/>
<path opacity="0.499273" fill-rule="evenodd" clip-rule="evenodd" d="M84.1552 225.803C7.49554 281.147 -117.684 179.762 -43.4388 73.6095C-13.0544 30.1665 83.8233 -57.7998 110.748 -12.2706C137.564 32.81 167.302 76.8753 138.898 115.446C105.057 161.399 116.474 202.471 84.1552 225.803Z" stroke="#1CA4E9" stroke-width="0.143127"/>
<path opacity="0.499273" fill-rule="evenodd" clip-rule="evenodd" d="M86.496 227.599C12.14 274.016 -116.097 190.057 -45.7042 73.2264C-17.2449 25.9914 89.8512 -58.6957 114.364 -9.97028C138.759 38.266 173.069 81.5735 140.183 118.218C101.195 161.66 120.35 206.465 86.496 227.599Z" stroke="#1CA4E9" stroke-width="0.143127"/>
<path opacity="0.499273" fill-rule="evenodd" clip-rule="evenodd" d="M88.8361 229.391C16.9047 267.301 -114.368 200.315 -47.9706 72.8394C-21.3822 21.7923 95.8781 -59.5955 117.98 -7.6735C139.954 43.7188 178.839 86.2953 141.467 120.986C97.3361 161.949 124.317 210.692 88.8361 229.391Z" stroke="#1CA4E9" stroke-width="0.143127"/>
<path opacity="0.499273" fill-rule="evenodd" clip-rule="evenodd" d="M91.1771 231.185C21.6626 261.036 -112.523 210.524 -50.2362 72.454C-25.4757 17.5678 101.906 -60.494 121.596 -5.37543C141.149 49.1728 184.607 91.0436 142.752 123.755C93.4728 162.269 128.345 215.224 91.1771 231.185Z" stroke="#1CA4E9" stroke-width="0.143127"/>
<path opacity="0.499273" fill-rule="evenodd" clip-rule="evenodd" d="M93.5166 232.978C26.2527 255.23 -110.589 220.674 -52.5026 72.0684C-29.5369 13.3138 107.932 -61.393 125.212 -3.07759C142.343 54.6264 190.365 95.8119 144.036 126.524C89.5974 162.612 132.381 220.121 93.5166 232.978Z" stroke="#1CA4E9" stroke-width="0.143127"/>
<path opacity="0.499273" fill-rule="evenodd" clip-rule="evenodd" d="M95.8579 234.773C30.4949 249.86 -108.586 230.763 -54.7678 71.6838C-33.5719 9.03139 113.961 -62.2906 128.828 -0.778749C143.538 60.0809 196.114 100.597 145.321 129.294C85.7097 162.974 136.353 225.426 95.8579 234.773Z" stroke="#1CA4E9" stroke-width="0.143127"/>
</g>
<g opacity="0.294967">
<path opacity="0.294967" fill-rule="evenodd" clip-rule="evenodd" d="M-33.3089 172.634C-224.478 156.523 7.93231 -83.2425 52.1036 35.0682C74.2229 94.3129 184.286 19.5042 197.888 81.1949C211.491 142.886 154.188 145.073 107.705 191.547C49.6543 249.587 16.0907 176.798 -33.3089 172.634Z" stroke="#2AEFFF" stroke-width="0.143127"/>
<path opacity="0.294967" fill-rule="evenodd" clip-rule="evenodd" d="M-33.9553 175.914C-215.546 154.352 0.360676 -78.2118 51.4763 32.4772C76.9002 87.5309 187.735 25.5716 197.328 86.057C206.955 146.514 152.315 153.173 105.696 194.116C47.7054 245.445 14.0798 181.617 -33.9553 175.914Z" stroke="#2AEFFF" stroke-width="0.143127"/>
<path opacity="0.294967" fill-rule="evenodd" clip-rule="evenodd" d="M-34.6006 179.192C-206.498 152.42 -7.34905 -73.3118 50.8503 29.8859C79.5054 80.6964 191.185 31.6391 196.769 90.9186C202.421 150.142 150.299 161.084 103.688 196.684C45.5776 241.069 12.1226 186.469 -34.6006 179.192Z" stroke="#2AEFFF" stroke-width="0.143127"/>
<path opacity="0.294967" fill-rule="evenodd" clip-rule="evenodd" d="M-35.2458 182.469C-197.345 150.767 -15.238 -68.5159 50.2239 27.2922C82.0161 73.8222 194.635 37.7038 196.211 95.7777C197.887 153.768 148.381 169.076 101.681 199.25C43.5731 236.795 10.2174 191.36 -35.2458 182.469Z" stroke="#2AEFFF" stroke-width="0.143127"/>
<path opacity="0.294967" fill-rule="evenodd" clip-rule="evenodd" d="M-35.8929 185.747C-188.106 149.434 -23.3416 -63.7741 49.5959 24.7004C84.4147 66.9366 198.084 43.7707 195.65 100.639C193.35 157.395 146.485 177.068 99.6714 201.818C41.5957 232.522 8.35983 196.304 -35.8929 185.747Z" stroke="#2AEFFF" stroke-width="0.143127"/>
<path opacity="0.294967" fill-rule="evenodd" clip-rule="evenodd" d="M-36.5393 189.026C-178.802 148.459 -31.6756 -59.0259 48.9685 22.1093C86.696 60.0659 201.533 49.8377 195.09 105.501C188.815 161.023 144.618 185.065 97.6622 204.387C39.6526 228.256 6.54739 201.312 -36.5393 189.026Z" stroke="#2AEFFF" stroke-width="0.143127"/>
<path opacity="0.294967" fill-rule="evenodd" clip-rule="evenodd" d="M-37.1866 192.302C-169.465 147.873 -40.2398 -54.2016 48.3403 19.5158C88.8632 53.2394 204.981 55.9032 194.529 110.36C184.278 164.649 142.777 193.075 95.6526 206.953C37.7431 224.007 4.76983 206.395 -37.1866 192.302Z" stroke="#2AEFFF" stroke-width="0.143127"/>
<path opacity="0.294967" fill-rule="evenodd" clip-rule="evenodd" d="M-37.8311 195.581C-160.132 147.707 -49.0031 -49.2289 47.7148 16.9244C90.9371 46.4876 208.432 61.9702 193.971 115.222C179.745 168.277 140.963 201.111 93.6454 209.521C35.8666 219.791 3.01739 211.571 -37.8311 195.581Z" stroke="#2AEFFF" stroke-width="0.143127"/>
<path opacity="0.294967" fill-rule="evenodd" clip-rule="evenodd" d="M-38.4766 198.86C-150.855 147.977 -57.9217 -44.0535 47.0881 14.3335C92.94 39.8277 211.882 68.0377 193.412 120.084C175.21 171.905 139.165 209.181 91.6376 212.09C34.0094 215.618 1.26789 216.856 -38.4766 198.86Z" stroke="#2AEFFF" stroke-width="0.143127"/>
<path opacity="0.294967" fill-rule="evenodd" clip-rule="evenodd" d="M-39.1223 202.14C-141.688 148.685 -66.9339 -38.6427 46.4614 11.743C94.9037 33.2677 215.331 74.1059 192.852 124.946C170.675 175.534 137.371 217.29 89.6292 214.659C32.1572 211.492 -0.503287 222.267 -39.1223 202.14Z" stroke="#2AEFFF" stroke-width="0.143127"/>
<path opacity="0.294967" fill-rule="evenodd" clip-rule="evenodd" d="M-39.7677 205.418C-132.691 149.815 -75.9758 -32.9909 45.8354 9.15153C96.8593 26.8041 218.781 80.1728 192.294 129.808C166.141 179.162 135.568 225.437 87.6217 217.227C30.294 207.411 -2.3295 227.82 -39.7677 205.418Z" stroke="#2AEFFF" stroke-width="0.143127"/>
<path opacity="0.294967" fill-rule="evenodd" clip-rule="evenodd" d="M-40.413 208.695C-123.935 151.331 -84.9924 -27.1135 45.2089 6.55864C98.8308 20.426 222.232 86.2383 191.735 134.668C161.606 182.788 133.745 233.615 85.6139 219.794C28.4062 203.366 -4.25393 233.53 -40.413 208.695Z" stroke="#2AEFFF" stroke-width="0.143127"/>
<path opacity="0.294967" fill-rule="evenodd" clip-rule="evenodd" d="M-41.0603 211.975C-115.489 153.174 -93.9427 -21.0371 44.5807 3.9685C100.834 14.1229 225.68 92.3066 191.174 139.531C157.07 186.417 131.892 241.818 83.6039 222.364C26.4831 199.35 -6.33162 239.412 -41.0603 211.975Z" stroke="#2AEFFF" stroke-width="0.143127"/>
<path opacity="0.294967" fill-rule="evenodd" clip-rule="evenodd" d="M-41.7052 215.249C-107.417 155.246 -102.796 -14.8088 43.9548 1.37202C102.885 7.86976 229.13 98.3688 190.615 144.387C152.536 190.04 130.011 250.027 81.5966 224.927C24.5272 195.339 -8.62001 245.459 -41.7052 215.249Z" stroke="#2AEFFF" stroke-width="0.143127"/>
<path opacity="0.294967" fill-rule="evenodd" clip-rule="evenodd" d="M-42.3515 218.53C-99.7858 157.445 -111.541 -8.45449 43.3275 -1.21676C104.984 1.66453 232.579 104.438 190.055 149.251C148 193.671 128.101 258.245 79.5877 227.498C22.5371 191.338 -11.1887 251.674 -42.3515 218.53Z" stroke="#2AEFFF" stroke-width="0.143127"/>
<path opacity="0.294967" fill-rule="evenodd" clip-rule="evenodd" d="M-42.9977 221.81C-92.6402 159.617 -120.173 -2.01844 42.7005 -3.8073C107.134 -4.51461 236.029 110.507 189.496 154.114C143.465 197.299 126.168 266.458 77.5795 230.067C20.5189 187.33 -14.0996 258.014 -42.9977 221.81Z" stroke="#2AEFFF" stroke-width="0.143127"/>
<path opacity="0.294967" fill-rule="evenodd" clip-rule="evenodd" d="M-43.6443 225.086C-86.0052 161.599 -128.7 4.46703 42.0728 -6.40045C109.33 -10.6806 239.477 116.572 188.936 158.973C138.929 200.925 124.216 274.66 75.5701 232.633C18.4781 183.309 -17.3999 264.419 -43.6443 225.086Z" stroke="#2AEFFF" stroke-width="0.143127"/>
</g>
</svg>
