<svg width="140" height="260" viewBox="0 0 140 260" fill="none" xmlns="http://www.w3.org/2000/svg">
<g opacity="0.499273">
<path opacity="0.499273" fill-rule="evenodd" clip-rule="evenodd" d="M109.347 15.3247C191.816 -152.341 295.382 147.008 186.272 143.549C131.634 141.817 150.236 269.314 96.7858 258.947C43.3361 248.581 62.5419 195.74 42.9912 136.413C18.5754 62.3236 88.0369 58.6509 109.347 15.3247Z" stroke="#1CA4E9" stroke-width="0.143127"/>
<path opacity="0.499273" fill-rule="evenodd" clip-rule="evenodd" d="M107.008 13.5301C190.348 -143.586 294.254 138.276 188.538 143.933C136.016 146.744 144.209 270.211 93.1706 256.648C42.1418 243.125 56.8611 191.055 41.7071 133.643C22.5428 62.0789 85.0068 55.0067 107.008 13.5301Z" stroke="#1CA4E9" stroke-width="0.143127"/>
<path opacity="0.499273" fill-rule="evenodd" clip-rule="evenodd" d="M104.667 11.738C188.667 -134.813 293.311 129.455 190.804 144.32C140.479 151.618 138.181 271.111 89.5543 254.351C40.9468 237.673 51.3849 186.333 40.4219 130.875C26.7651 61.7858 81.9369 51.3939 104.667 11.738Z" stroke="#1CA4E9" stroke-width="0.143127"/>
<path opacity="0.499273" fill-rule="evenodd" clip-rule="evenodd" d="M102.326 9.94347C186.746 -126.045 292.536 120.485 193.07 144.705C145.013 156.406 132.154 272.009 85.938 252.053C39.7518 232.218 45.8017 181.652 39.1373 128.105C30.8531 61.5442 78.8216 47.8063 102.326 9.94347Z" stroke="#1CA4E9" stroke-width="0.143127"/>
<path opacity="0.499273" fill-rule="evenodd" clip-rule="evenodd" d="M99.9863 8.14965C184.558 -117.3 291.883 111.32 195.336 145.09C149.598 161.088 126.127 272.907 82.3226 249.754C38.5576 226.764 40.211 176.988 37.8533 125.336C34.9314 61.3241 75.654 44.243 99.9863 8.14965Z" stroke="#1CA4E9" stroke-width="0.143127"/>
<path opacity="0.499273" fill-rule="evenodd" clip-rule="evenodd" d="M97.6457 6.35708C182.076 -108.605 291.287 101.926 197.602 145.476C154.201 165.651 120.1 273.807 78.7062 247.457C37.3628 221.312 34.6063 172.343 36.5686 122.567C38.9908 61.1259 72.4251 40.6982 97.6457 6.35708Z" stroke="#1CA4E9" stroke-width="0.143127"/>
<path opacity="0.499273" fill-rule="evenodd" clip-rule="evenodd" d="M95.3047 4.56216C179.275 -99.9955 290.674 92.2895 199.867 145.861C158.791 170.093 114.071 274.704 75.0897 245.158C36.1672 215.857 28.9809 167.71 35.2829 119.797C43.0243 60.9422 69.1259 37.1594 95.3047 4.56216Z" stroke="#1CA4E9" stroke-width="0.143127"/>
<path opacity="0.499273" fill-rule="evenodd" clip-rule="evenodd" d="M92.9643 2.76838C176.139 -91.5093 289.971 82.4284 202.133 146.246C163.339 174.431 108.044 275.602 71.4738 242.86C34.9725 210.402 23.3316 163.086 33.9986 117.028C47.0274 60.7706 65.7488 33.6167 92.9643 2.76838Z" stroke="#1CA4E9" stroke-width="0.143127"/>
<path opacity="0.499273" fill-rule="evenodd" clip-rule="evenodd" d="M90.6234 0.972701C172.658 -83.1923 289.121 72.3791 204.398 146.629C167.821 178.685 102.016 276.499 67.8573 240.56C33.7773 204.946 17.6527 158.463 32.7136 114.256C50.9941 60.5989 62.2832 30.0488 90.6234 0.972701Z" stroke="#1CA4E9" stroke-width="0.143127"/>
<path opacity="0.499273" fill-rule="evenodd" clip-rule="evenodd" d="M88.2828 -0.819412C168.835 -75.0893 288.087 62.1976 206.664 147.016C172.228 182.889 95.9889 277.399 64.2412 238.263C32.5828 199.494 11.9445 153.835 31.4289 111.488C54.925 60.4217 58.7213 26.437 88.2828 -0.819412Z" stroke="#1CA4E9" stroke-width="0.143127"/>
<path opacity="0.499273" fill-rule="evenodd" clip-rule="evenodd" d="M85.9414 -2.61291C164.689 -67.2581 286.857 51.9323 208.929 147.402C176.556 187.062 89.9604 278.298 60.6243 235.965C31.3871 194.04 6.20915 149.19 30.143 108.719C58.8235 60.2231 55.0551 22.7424 85.9414 -2.61291Z" stroke="#1CA4E9" stroke-width="0.143127"/>
<path opacity="0.499273" fill-rule="evenodd" clip-rule="evenodd" d="M83.6027 -4.40631C160.262 -59.7502 285.441 41.6345 211.197 147.787C180.812 191.23 83.9345 279.196 57.01 233.667C30.1938 188.586 0.455918 144.521 28.8602 105.95C62.7006 59.9971 51.2841 18.9257 83.6027 -4.40631Z" stroke="#1CA4E9" stroke-width="0.143127"/>
<path opacity="0.499273" fill-rule="evenodd" clip-rule="evenodd" d="M81.2618 -6.20241C155.618 -52.6196 283.855 31.3394 213.462 148.17C185.003 195.405 77.9066 280.092 53.3936 231.367C28.9986 183.13 -5.31157 139.823 27.5752 103.179C66.5624 59.7364 47.4078 14.9311 81.2618 -6.20241Z" stroke="#1CA4E9" stroke-width="0.143127"/>
<path opacity="0.499273" fill-rule="evenodd" clip-rule="evenodd" d="M78.9217 -7.99448C150.853 -45.9042 282.126 21.0813 215.728 148.557C189.14 199.604 71.8797 280.992 49.778 229.07C27.8043 177.678 -11.0816 135.101 26.2907 100.411C70.4217 59.4473 43.4412 10.7046 78.9217 -7.99448Z" stroke="#1CA4E9" stroke-width="0.143127"/>
<path opacity="0.499273" fill-rule="evenodd" clip-rule="evenodd" d="M76.5797 -9.78829C146.094 -39.6398 280.28 10.8721 217.993 148.942C193.233 203.829 65.851 281.89 46.1605 226.772C26.6081 172.224 -16.8504 130.353 25.0046 97.6413C74.2841 59.1277 39.412 6.17288 76.5797 -9.78829Z" stroke="#1CA4E9" stroke-width="0.143127"/>
<path opacity="0.499273" fill-rule="evenodd" clip-rule="evenodd" d="M74.2413 -11.5815C141.505 -33.8338 278.347 0.722343 220.26 149.328C197.295 208.083 59.8254 282.789 42.5462 224.474C25.415 166.77 -22.6077 125.585 23.722 94.8724C78.1604 58.7848 35.3765 1.27538 74.2413 -11.5815Z" stroke="#1CA4E9" stroke-width="0.143127"/>
<path opacity="0.499273" fill-rule="evenodd" clip-rule="evenodd" d="M71.8999 -13.376C137.263 -28.4632 276.344 -9.36661 222.526 149.713C201.33 212.365 53.7969 283.687 38.9294 222.175C24.2194 161.316 -28.3562 120.8 22.4365 92.1022C82.0481 58.4222 31.4045 -4.02908 71.8999 -13.376Z" stroke="#1CA4E9" stroke-width="0.143127"/>
</g>
</svg>
