<svg width="201" height="246" viewBox="0 0 201 246" fill="none" xmlns="http://www.w3.org/2000/svg">
<g opacity="0.294967">
<path opacity="0.294967" fill-rule="evenodd" clip-rule="evenodd" d="M-33.3089 172.634C-224.478 156.523 7.93231 -83.2425 52.1036 35.0682C74.2229 94.3129 184.286 19.5042 197.888 81.1949C211.491 142.886 154.188 145.073 107.705 191.547C49.6543 249.587 16.0907 176.798 -33.3089 172.634Z" stroke="#2AEFFF" stroke-width="0.143127"/>
<path opacity="0.294967" fill-rule="evenodd" clip-rule="evenodd" d="M-33.9553 175.914C-215.546 154.352 0.360676 -78.2118 51.4763 32.4772C76.9002 87.5309 187.735 25.5716 197.328 86.057C206.955 146.514 152.315 153.173 105.696 194.116C47.7054 245.445 14.0798 181.617 -33.9553 175.914Z" stroke="#2AEFFF" stroke-width="0.143127"/>
<path opacity="0.294967" fill-rule="evenodd" clip-rule="evenodd" d="M-34.6006 179.192C-206.498 152.42 -7.34905 -73.3118 50.8503 29.8859C79.5054 80.6964 191.185 31.6391 196.769 90.9186C202.421 150.142 150.299 161.084 103.688 196.684C45.5776 241.069 12.1226 186.469 -34.6006 179.192Z" stroke="#2AEFFF" stroke-width="0.143127"/>
<path opacity="0.294967" fill-rule="evenodd" clip-rule="evenodd" d="M-35.2458 182.469C-197.345 150.767 -15.238 -68.5159 50.2239 27.2922C82.0161 73.8222 194.635 37.7038 196.211 95.7777C197.887 153.768 148.381 169.076 101.681 199.25C43.5731 236.795 10.2174 191.36 -35.2458 182.469Z" stroke="#2AEFFF" stroke-width="0.143127"/>
<path opacity="0.294967" fill-rule="evenodd" clip-rule="evenodd" d="M-35.8929 185.747C-188.106 149.434 -23.3416 -63.7741 49.5959 24.7004C84.4147 66.9366 198.084 43.7707 195.65 100.639C193.35 157.395 146.485 177.068 99.6714 201.818C41.5957 232.522 8.35983 196.304 -35.8929 185.747Z" stroke="#2AEFFF" stroke-width="0.143127"/>
<path opacity="0.294967" fill-rule="evenodd" clip-rule="evenodd" d="M-36.5393 189.026C-178.802 148.459 -31.6756 -59.0259 48.9685 22.1093C86.696 60.0659 201.533 49.8377 195.09 105.501C188.815 161.023 144.618 185.065 97.6622 204.387C39.6526 228.256 6.54739 201.312 -36.5393 189.026Z" stroke="#2AEFFF" stroke-width="0.143127"/>
<path opacity="0.294967" fill-rule="evenodd" clip-rule="evenodd" d="M-37.1866 192.302C-169.465 147.873 -40.2398 -54.2016 48.3403 19.5158C88.8632 53.2394 204.981 55.9032 194.529 110.36C184.278 164.649 142.777 193.075 95.6526 206.953C37.7431 224.007 4.76983 206.395 -37.1866 192.302Z" stroke="#2AEFFF" stroke-width="0.143127"/>
<path opacity="0.294967" fill-rule="evenodd" clip-rule="evenodd" d="M-37.8311 195.581C-160.132 147.707 -49.0031 -49.2289 47.7148 16.9244C90.9371 46.4876 208.432 61.9702 193.971 115.222C179.745 168.277 140.963 201.111 93.6454 209.521C35.8666 219.791 3.01739 211.571 -37.8311 195.581Z" stroke="#2AEFFF" stroke-width="0.143127"/>
<path opacity="0.294967" fill-rule="evenodd" clip-rule="evenodd" d="M-38.4766 198.86C-150.855 147.977 -57.9217 -44.0535 47.0881 14.3335C92.94 39.8277 211.882 68.0377 193.412 120.084C175.21 171.905 139.165 209.181 91.6376 212.09C34.0094 215.618 1.26789 216.856 -38.4766 198.86Z" stroke="#2AEFFF" stroke-width="0.143127"/>
<path opacity="0.294967" fill-rule="evenodd" clip-rule="evenodd" d="M-39.1223 202.14C-141.688 148.685 -66.9339 -38.6427 46.4614 11.743C94.9037 33.2677 215.331 74.1059 192.852 124.946C170.675 175.534 137.371 217.29 89.6292 214.659C32.1572 211.492 -0.503287 222.267 -39.1223 202.14Z" stroke="#2AEFFF" stroke-width="0.143127"/>
<path opacity="0.294967" fill-rule="evenodd" clip-rule="evenodd" d="M-39.7677 205.418C-132.691 149.815 -75.9758 -32.9909 45.8354 9.15153C96.8593 26.8041 218.781 80.1728 192.294 129.808C166.141 179.162 135.568 225.437 87.6217 217.227C30.294 207.411 -2.3295 227.82 -39.7677 205.418Z" stroke="#2AEFFF" stroke-width="0.143127"/>
<path opacity="0.294967" fill-rule="evenodd" clip-rule="evenodd" d="M-40.413 208.695C-123.935 151.331 -84.9924 -27.1135 45.2089 6.55864C98.8308 20.426 222.232 86.2383 191.735 134.668C161.606 182.788 133.745 233.615 85.6139 219.794C28.4062 203.366 -4.25393 233.53 -40.413 208.695Z" stroke="#2AEFFF" stroke-width="0.143127"/>
<path opacity="0.294967" fill-rule="evenodd" clip-rule="evenodd" d="M-41.0603 211.975C-115.489 153.174 -93.9427 -21.0371 44.5807 3.9685C100.834 14.1229 225.68 92.3066 191.174 139.531C157.07 186.417 131.892 241.818 83.6039 222.364C26.4831 199.35 -6.33162 239.412 -41.0603 211.975Z" stroke="#2AEFFF" stroke-width="0.143127"/>
<path opacity="0.294967" fill-rule="evenodd" clip-rule="evenodd" d="M-41.7052 215.249C-107.417 155.246 -102.796 -14.8088 43.9548 1.37202C102.885 7.86976 229.13 98.3688 190.615 144.387C152.536 190.04 130.011 250.027 81.5966 224.927C24.5272 195.339 -8.62001 245.459 -41.7052 215.249Z" stroke="#2AEFFF" stroke-width="0.143127"/>
<path opacity="0.294967" fill-rule="evenodd" clip-rule="evenodd" d="M-42.3515 218.53C-99.7858 157.445 -111.541 -8.45449 43.3275 -1.21676C104.984 1.66453 232.579 104.438 190.055 149.251C148 193.671 128.101 258.245 79.5877 227.498C22.5371 191.338 -11.1887 251.674 -42.3515 218.53Z" stroke="#2AEFFF" stroke-width="0.143127"/>
<path opacity="0.294967" fill-rule="evenodd" clip-rule="evenodd" d="M-42.9977 221.81C-92.6402 159.617 -120.173 -2.01844 42.7005 -3.8073C107.134 -4.51461 236.029 110.507 189.496 154.114C143.465 197.299 126.168 266.458 77.5795 230.067C20.5189 187.33 -14.0996 258.014 -42.9977 221.81Z" stroke="#2AEFFF" stroke-width="0.143127"/>
<path opacity="0.294967" fill-rule="evenodd" clip-rule="evenodd" d="M-43.6443 225.086C-86.0052 161.599 -128.7 4.46703 42.0728 -6.40045C109.33 -10.6806 239.477 116.572 188.936 158.973C138.929 200.925 124.216 274.66 75.5701 232.633C18.4781 183.309 -17.3999 264.419 -43.6443 225.086Z" stroke="#2AEFFF" stroke-width="0.143127"/>
</g>
</svg>
