<svg width="39" height="26" viewBox="0 0 39 26" fill="none" xmlns="http://www.w3.org/2000/svg">
<path d="M4.08666 16.9665C4.08666 16.9665 2.42716 21.6774 6.30075 21.5103H31.1397C31.1397 21.5103 38.0561 19.1785 38.2767 18.0179C37.5897 20.4951 35.997 22.6236 33.8142 23.9814C29.9963 26.3368 9.17008 25.3797 5.577 25.1976C5.03847 25.1719 4.50637 25.0695 3.99672 24.8936C2.54065 24.3797 0.0888672 23.0242 0.0888672 19.6431C0.0888672 14.8359 4.08666 16.9665 4.08666 16.9665Z" fill="url(#paint0_linear_6106_29846)"/>
<path d="M25.9657 6.9577C25.9657 6.9577 20.1842 0.446041 13.088 5.77357C13.088 5.77357 8.42425 8.47588 10.1266 16.949H7.82469C6.83606 16.9405 5.86623 17.2192 5.03301 17.7514C4.19979 18.2836 3.53903 19.0462 3.13099 19.9468C2.68346 20.9682 2.36441 22.3022 2.36441 24.0709C2.36441 24.0709 -0.205136 22.7433 0.0796549 19.0967C0.336609 15.8847 2.88046 13.3323 6.09667 13.2253H6.2123C6.2123 13.2253 5.36221 2.07128 17.6853 0.137695L22.1242 1.3154L25.6766 4.46096L25.9657 6.9577Z" fill="url(#paint1_linear_6106_29846)"/>
<path d="M17.6904 0.131953C17.6904 0.131953 24.3905 1.94134 27.4932 9.91551C27.4932 9.91551 34.5102 9.20246 34.7993 15.6242C34.7993 15.6242 35.4117 20.2772 29.7116 21.5042C29.7116 21.5042 38.6237 22.8425 38.6237 15.9133C38.6237 15.9133 38.6943 7.25388 29.5681 6.3524C29.5681 6.3524 26.399 -1.07145 17.6904 0.131953Z" fill="url(#paint2_linear_6106_29846)"/>
<defs>
<linearGradient id="paint0_linear_6106_29846" x1="0.0888672" y1="21.0136" x2="38.3259" y2="21.0136" gradientUnits="userSpaceOnUse">
<stop stop-color="#29218A"/>
<stop offset="0.08" stop-color="#36258C"/>
<stop offset="0.47" stop-color="#733597"/>
<stop offset="1" stop-color="#AA55A7"/>
</linearGradient>
<linearGradient id="paint1_linear_6106_29846" x1="0.0775139" y1="17.874" x2="25.8287" y2="0.486752" gradientUnits="userSpaceOnUse">
<stop stop-color="#F5E648"/>
<stop offset="0.32" stop-color="#EFA035"/>
<stop offset="0.62" stop-color="#EA6225"/>
<stop offset="1" stop-color="#CE1543"/>
</linearGradient>
<linearGradient id="paint2_linear_6106_29846" x1="21.3049" y1="1.39103" x2="35.1055" y2="18.0909" gradientUnits="userSpaceOnUse">
<stop stop-color="#AADED2"/>
<stop offset="0.57" stop-color="#73C5A8"/>
<stop offset="1" stop-color="#5082BB"/>
</linearGradient>
</defs>
</svg>
